<mxfile host="app.diagrams.net" modified="2020-12-25T06:57:33.687Z" agent="5.0 (Macintosh; Intel Mac OS X 10_14_6) AppleWebKit/537.36 (KHTML, like Gecko) Chrome/79.0.3945.130 Safari/537.36" etag="Wx8WYFVPTP_o9uSK8QX7" version="13.10.8" type="github">
  <diagram id="691b31df-7cfc-d80e-552c-7aa9f8c0b5f7" name="Page-1">
    <mxGraphModel dx="856" dy="1005" grid="1" gridSize="10" guides="1" tooltips="1" connect="1" arrows="1" fold="1" page="1" pageScale="1" pageWidth="826" pageHeight="1169" background="#ffffff" math="0" shadow="0">
      <root>
        <mxCell id="0" />
        <mxCell id="1" parent="0" />
        <mxCell id="3" value="" style="ellipse;whiteSpace=wrap;html=1;aspect=fixed;strokeWidth=4;align=center;" parent="1" vertex="1">
          <mxGeometry x="213" y="170" width="40" height="40" as="geometry" />
        </mxCell>
        <mxCell id="4" value="" style="ellipse;whiteSpace=wrap;html=1;aspect=fixed;strokeWidth=4;align=center;" parent="1" vertex="1">
          <mxGeometry x="213" y="251" width="40" height="40" as="geometry" />
        </mxCell>
        <mxCell id="5" value="" style="ellipse;whiteSpace=wrap;html=1;aspect=fixed;strokeWidth=4;align=center;" parent="1" vertex="1">
          <mxGeometry x="213" y="329" width="40" height="40" as="geometry" />
        </mxCell>
        <mxCell id="6" value="" style="ellipse;whiteSpace=wrap;html=1;aspect=fixed;strokeWidth=4;align=center;" parent="1" vertex="1">
          <mxGeometry x="213" y="490" width="40" height="40" as="geometry" />
        </mxCell>
        <mxCell id="7" value="" style="ellipse;whiteSpace=wrap;html=1;aspect=fixed;strokeWidth=4;align=center;" parent="1" vertex="1">
          <mxGeometry x="213" y="409" width="40" height="40" as="geometry" />
        </mxCell>
        <mxCell id="8" value="" style="ellipse;whiteSpace=wrap;html=1;aspect=fixed;strokeWidth=4;align=center;" parent="1" vertex="1">
          <mxGeometry x="373" y="170" width="40" height="40" as="geometry" />
        </mxCell>
        <mxCell id="9" value="" style="ellipse;whiteSpace=wrap;html=1;aspect=fixed;strokeWidth=4;align=center;" parent="1" vertex="1">
          <mxGeometry x="373" y="251" width="40" height="40" as="geometry" />
        </mxCell>
        <mxCell id="10" value="" style="ellipse;whiteSpace=wrap;html=1;aspect=fixed;strokeWidth=4;align=center;" parent="1" vertex="1">
          <mxGeometry x="373" y="329" width="40" height="40" as="geometry" />
        </mxCell>
        <mxCell id="11" value="" style="ellipse;whiteSpace=wrap;html=1;aspect=fixed;strokeWidth=4;align=center;" parent="1" vertex="1">
          <mxGeometry x="373" y="490" width="40" height="40" as="geometry" />
        </mxCell>
        <mxCell id="12" value="" style="ellipse;whiteSpace=wrap;html=1;aspect=fixed;strokeWidth=4;align=center;" parent="1" vertex="1">
          <mxGeometry x="373" y="409" width="40" height="40" as="geometry" />
        </mxCell>
        <mxCell id="13" value="" style="endArrow=classicThin;html=1;shadow=0;strokeColor=#000000;strokeWidth=1;fontColor=#666666;entryX=0;entryY=0.5;endFill=1;exitX=1;exitY=0.5;endSize=3;" parent="1" source="3" target="11" edge="1">
          <mxGeometry width="50" height="50" relative="1" as="geometry">
            <mxPoint x="274" y="235" as="sourcePoint" />
            <mxPoint x="324" y="210" as="targetPoint" />
          </mxGeometry>
        </mxCell>
        <mxCell id="14" value="" style="endArrow=classicThin;html=1;shadow=0;strokeColor=#000000;strokeWidth=1;fontColor=#666666;entryX=0;entryY=0.5;exitX=1;exitY=0.5;endFill=1;endSize=3;" parent="1" source="3" target="12" edge="1">
          <mxGeometry width="50" height="50" relative="1" as="geometry">
            <mxPoint x="284" y="230" as="sourcePoint" />
            <mxPoint x="374" y="455" as="targetPoint" />
          </mxGeometry>
        </mxCell>
        <mxCell id="15" value="" style="endArrow=classicThin;html=1;shadow=0;strokeColor=#000000;strokeWidth=1;fontColor=#666666;entryX=0;entryY=0.5;endFill=1;exitX=1;exitY=0.5;endSize=3;" parent="1" source="3" target="10" edge="1">
          <mxGeometry width="50" height="50" relative="1" as="geometry">
            <mxPoint x="274" y="230" as="sourcePoint" />
            <mxPoint x="374" y="410" as="targetPoint" />
          </mxGeometry>
        </mxCell>
        <mxCell id="16" value="" style="endArrow=classicThin;html=1;shadow=0;strokeColor=#000000;strokeWidth=1;fontColor=#666666;entryX=0;entryY=0.5;endFill=1;exitX=1;exitY=0.5;endSize=3;" parent="1" source="3" target="9" edge="1">
          <mxGeometry width="50" height="50" relative="1" as="geometry">
            <mxPoint x="274" y="230" as="sourcePoint" />
            <mxPoint x="374" y="350" as="targetPoint" />
          </mxGeometry>
        </mxCell>
        <mxCell id="17" value="" style="endArrow=classicThin;html=1;shadow=0;strokeColor=#000000;strokeWidth=1;fontColor=#666666;entryX=0;entryY=0.5;exitX=1;exitY=0.5;endFill=1;endSize=3;" parent="1" source="3" target="8" edge="1">
          <mxGeometry width="50" height="50" relative="1" as="geometry">
            <mxPoint x="284" y="197" as="sourcePoint" />
            <mxPoint x="374" y="247" as="targetPoint" />
          </mxGeometry>
        </mxCell>
        <mxCell id="18" value="" style="endArrow=classicThin;html=1;shadow=0;strokeColor=#000000;strokeWidth=1;fontColor=#666666;entryX=0;entryY=0.5;exitX=1;exitY=0.5;endFill=1;endSize=3;" parent="1" source="4" target="11" edge="1">
          <mxGeometry width="50" height="50" relative="1" as="geometry">
            <mxPoint x="284" y="245" as="sourcePoint" />
            <mxPoint x="374" y="470" as="targetPoint" />
          </mxGeometry>
        </mxCell>
        <mxCell id="19" value="" style="endArrow=classicThin;html=1;shadow=0;strokeColor=#000000;strokeWidth=1;fontColor=#666666;entryX=0;entryY=0.5;exitX=1;exitY=0.5;endFill=1;endSize=3;" parent="1" source="4" target="12" edge="1">
          <mxGeometry width="50" height="50" relative="1" as="geometry">
            <mxPoint x="284" y="290" as="sourcePoint" />
            <mxPoint x="374" y="470" as="targetPoint" />
          </mxGeometry>
        </mxCell>
        <mxCell id="20" value="" style="endArrow=classicThin;html=1;shadow=0;strokeColor=#000000;strokeWidth=1;fontColor=#666666;entryX=0;entryY=0.5;exitX=1;exitY=0.5;endFill=1;endSize=3;" parent="1" source="4" target="10" edge="1">
          <mxGeometry width="50" height="50" relative="1" as="geometry">
            <mxPoint x="274" y="290" as="sourcePoint" />
            <mxPoint x="374" y="410" as="targetPoint" />
          </mxGeometry>
        </mxCell>
        <mxCell id="21" value="" style="endArrow=classicThin;html=1;shadow=0;strokeColor=#000000;strokeWidth=1;fontColor=#666666;entryX=0;entryY=0.5;exitX=1;exitY=0.5;endFill=1;endSize=3;" parent="1" source="4" target="9" edge="1">
          <mxGeometry width="50" height="50" relative="1" as="geometry">
            <mxPoint x="284" y="278" as="sourcePoint" />
            <mxPoint x="374" y="338" as="targetPoint" />
          </mxGeometry>
        </mxCell>
        <mxCell id="22" value="" style="endArrow=classicThin;html=1;shadow=0;strokeColor=#000000;strokeWidth=1;fontColor=#666666;entryX=0;entryY=0.5;endFill=1;exitX=1;exitY=0.5;endSize=3;" parent="1" source="4" target="8" edge="1">
          <mxGeometry width="50" height="50" relative="1" as="geometry">
            <mxPoint x="274" y="280" as="sourcePoint" />
            <mxPoint x="364" y="280" as="targetPoint" />
          </mxGeometry>
        </mxCell>
        <mxCell id="23" value="" style="endArrow=classicThin;html=1;shadow=0;strokeColor=#000000;strokeWidth=1;fontColor=#666666;entryX=0;entryY=0.5;exitX=1;exitY=0.5;endFill=1;endSize=3;" parent="1" source="5" target="10" edge="1">
          <mxGeometry width="50" height="50" relative="1" as="geometry">
            <mxPoint x="284" y="299" as="sourcePoint" />
            <mxPoint x="374" y="299" as="targetPoint" />
          </mxGeometry>
        </mxCell>
        <mxCell id="24" value="" style="endArrow=classicThin;html=1;shadow=0;strokeColor=#000000;strokeWidth=1;fontColor=#666666;entryX=0;entryY=0.5;exitX=1;exitY=0.5;endFill=1;endSize=3;" parent="1" source="5" target="12" edge="1">
          <mxGeometry width="50" height="50" relative="1" as="geometry">
            <mxPoint x="284" y="353" as="sourcePoint" />
            <mxPoint x="374" y="353" as="targetPoint" />
          </mxGeometry>
        </mxCell>
        <mxCell id="25" value="" style="endArrow=classicThin;html=1;shadow=0;strokeColor=#000000;strokeWidth=1;fontColor=#666666;entryX=0;entryY=0.5;exitX=1;exitY=0.5;endFill=1;endSize=3;" parent="1" source="5" target="11" edge="1">
          <mxGeometry width="50" height="50" relative="1" as="geometry">
            <mxPoint x="284" y="353" as="sourcePoint" />
            <mxPoint x="374" y="413" as="targetPoint" />
          </mxGeometry>
        </mxCell>
        <mxCell id="26" value="" style="endArrow=classicThin;html=1;shadow=0;strokeColor=#000000;strokeWidth=1;fontColor=#666666;entryX=0;entryY=0.5;exitX=1;exitY=0.5;endFill=1;endSize=3;" parent="1" source="5" target="9" edge="1">
          <mxGeometry width="50" height="50" relative="1" as="geometry">
            <mxPoint x="284" y="353" as="sourcePoint" />
            <mxPoint x="374" y="353" as="targetPoint" />
          </mxGeometry>
        </mxCell>
        <mxCell id="27" value="" style="endArrow=classicThin;html=1;shadow=0;strokeColor=#000000;strokeWidth=1;fontColor=#666666;entryX=0;entryY=0.5;exitX=1;exitY=0.5;endFill=1;endSize=3;" parent="1" source="5" target="8" edge="1">
          <mxGeometry width="50" height="50" relative="1" as="geometry">
            <mxPoint x="284" y="353" as="sourcePoint" />
            <mxPoint x="374" y="293" as="targetPoint" />
          </mxGeometry>
        </mxCell>
        <mxCell id="28" value="" style="endArrow=classicThin;html=1;shadow=0;strokeColor=#000000;strokeWidth=1;fontColor=#666666;entryX=0;entryY=0.5;exitX=1;exitY=0.5;endFill=1;endSize=3;" parent="1" source="7" target="12" edge="1">
          <mxGeometry width="50" height="50" relative="1" as="geometry">
            <mxPoint x="284" y="379" as="sourcePoint" />
            <mxPoint x="374" y="379" as="targetPoint" />
          </mxGeometry>
        </mxCell>
        <mxCell id="29" value="" style="endArrow=classicThin;html=1;shadow=0;strokeColor=#000000;strokeWidth=1;fontColor=#666666;entryX=0;entryY=0.5;exitX=1;exitY=0.5;endFill=1;endSize=3;" parent="1" source="6" target="11" edge="1">
          <mxGeometry width="50" height="50" relative="1" as="geometry">
            <mxPoint x="284" y="469" as="sourcePoint" />
            <mxPoint x="374" y="469" as="targetPoint" />
          </mxGeometry>
        </mxCell>
        <mxCell id="30" value="" style="endArrow=classicThin;html=1;shadow=0;strokeColor=#000000;strokeWidth=1;fontColor=#666666;entryX=0;entryY=0.5;exitX=1;exitY=0.5;endFill=1;endSize=3;" parent="1" source="6" target="12" edge="1">
          <mxGeometry width="50" height="50" relative="1" as="geometry">
            <mxPoint x="284" y="473" as="sourcePoint" />
            <mxPoint x="374" y="473" as="targetPoint" />
          </mxGeometry>
        </mxCell>
        <mxCell id="31" value="" style="endArrow=classicThin;html=1;shadow=0;strokeColor=#000000;strokeWidth=1;fontColor=#666666;entryX=0;entryY=0.5;exitX=1;exitY=0.5;endFill=1;endSize=3;" parent="1" source="6" target="10" edge="1">
          <mxGeometry width="50" height="50" relative="1" as="geometry">
            <mxPoint x="284" y="473" as="sourcePoint" />
            <mxPoint x="374" y="413" as="targetPoint" />
          </mxGeometry>
        </mxCell>
        <mxCell id="32" value="" style="endArrow=classicThin;html=1;shadow=0;strokeColor=#000000;strokeWidth=1;fontColor=#666666;entryX=0;entryY=0.5;exitX=1;exitY=0.5;endFill=1;endSize=3;" parent="1" source="6" target="9" edge="1">
          <mxGeometry width="50" height="50" relative="1" as="geometry">
            <mxPoint x="284" y="473" as="sourcePoint" />
            <mxPoint x="374" y="353" as="targetPoint" />
          </mxGeometry>
        </mxCell>
        <mxCell id="33" value="" style="endArrow=classicThin;html=1;shadow=0;strokeColor=#000000;strokeWidth=1;fontColor=#666666;entryX=0;entryY=0.5;exitX=1;exitY=0.5;endFill=1;endSize=3;" parent="1" source="6" target="8" edge="1">
          <mxGeometry width="50" height="50" relative="1" as="geometry">
            <mxPoint x="284" y="473" as="sourcePoint" />
            <mxPoint x="374" y="293" as="targetPoint" />
          </mxGeometry>
        </mxCell>
        <mxCell id="34" value="" style="endArrow=classicThin;html=1;shadow=0;strokeColor=#000000;strokeWidth=1;fontColor=#666666;exitX=1;exitY=0.5;endFill=1;entryX=0;entryY=0.5;endSize=3;" parent="1" source="7" target="11" edge="1">
          <mxGeometry width="50" height="50" relative="1" as="geometry">
            <mxPoint x="284" y="413" as="sourcePoint" />
            <mxPoint x="364" y="460" as="targetPoint" />
          </mxGeometry>
        </mxCell>
        <mxCell id="35" value="" style="endArrow=classicThin;html=1;shadow=0;strokeColor=#000000;strokeWidth=1;fontColor=#666666;entryX=0;entryY=0.5;exitX=1;exitY=0.5;endFill=1;endSize=3;" parent="1" source="7" target="10" edge="1">
          <mxGeometry width="50" height="50" relative="1" as="geometry">
            <mxPoint x="284" y="413" as="sourcePoint" />
            <mxPoint x="374" y="413" as="targetPoint" />
          </mxGeometry>
        </mxCell>
        <mxCell id="36" value="" style="endArrow=classicThin;html=1;shadow=0;strokeColor=#000000;strokeWidth=1;fontColor=#666666;entryX=0;entryY=0.5;exitX=1;exitY=0.5;endFill=1;endSize=3;" parent="1" source="7" target="9" edge="1">
          <mxGeometry width="50" height="50" relative="1" as="geometry">
            <mxPoint x="284" y="413" as="sourcePoint" />
            <mxPoint x="374" y="353" as="targetPoint" />
          </mxGeometry>
        </mxCell>
        <mxCell id="37" value="" style="endArrow=classicThin;html=1;shadow=0;strokeColor=#000000;strokeWidth=1;fontColor=#666666;entryX=0;entryY=0.5;exitX=1;exitY=0.5;endFill=1;endSize=3;" parent="1" source="7" target="8" edge="1">
          <mxGeometry width="50" height="50" relative="1" as="geometry">
            <mxPoint x="284" y="413" as="sourcePoint" />
            <mxPoint x="374" y="293" as="targetPoint" />
          </mxGeometry>
        </mxCell>
      </root>
    </mxGraphModel>
  </diagram>
</mxfile>
